<svg version="1" xmlns="http://www.w3.org/2000/svg" width="140" height="110" viewBox="0 0 140 110">
    <linearGradient id="a" gradientUnits="userSpaceOnUse" x1="26.57" y1="65.152" x2="108.57" y2="-16.848">
        <stop offset="0" stop-color="#FF2271"/>
        <stop offset="1" stop-color="#3234FF"/>
    </linearGradient>
    <path fill-rule="evenodd" clip-rule="evenodd" fill="url(#a)" d="M5.57 4.15l62 102 62-102h-124zm12 7h100l-50 82-50-82z"/>
    <path fill="#6663FF" d="M95.285 48.148c-.8-.82-1.71-1.47-2.73-1.95s-2.03-.744-3.03-.945c.178-.053.343-.102.512-.102h-3c.972 0 1.807-.877 2.488-1.457.8-.68 1.45-1.508 1.95-2.408.5-.9.86-1.9 1.08-2.96.22-1.06.33-2.16.33-3.28 0-2.04-.33-3.793-.99-5.253-.66-1.46-1.61-2.643-2.85-3.542-1.24-.9-2.74-1.305-4.5-1.725-1.76-.42-3.72-.375-5.88-.375H66.907v21h3v22h13.5c1.878 0 3.698-.107 5.458-.547s3.31-1.083 4.65-2.043 2.42-2.162 3.24-3.662 1.23-3.294 1.23-5.415c0-1.64-.25-3.062-.75-4.283-.5-1.22-1.15-2.23-1.95-3.052zM73.907 30.15h5c2.038 0 3.66.545 4.858 1.484 1.2.94 1.8 2.383 1.8 4.343 0 1.68-.49 3.206-1.47 4.406s-2.49 1.768-4.53 1.768h-5.658v-12zm16.16 27.118c-.4.78-.962 1.42-1.68 1.92-.722.5-1.562 1.097-2.522 1.356-.96.26-1.98.607-3.06.607h-5.898v-13h5.24c1.08 0 2.128.233 3.15.435 1.02.2 1.927.606 2.728 1.087.8.48 1.44 1.142 1.92 1.923.48.78.72 1.768.72 2.927 0 1.04-.2 1.966-.6 2.746zm47.84 3.883v6h-30v-22h-3v-21h29v6h-22v12h20v3h3v4h-20v12h23zm-105.74-37h7.26c-.16 0-.54 1.004-1.14 2.444s-1.35 3.082-2.25 5.182c-.9 2.1-1.9 4.406-3 6.986-.89 2.083-1.8 4.39-2.728 6.39h3c-.223 0-.44.938-.663 1.45-1.16 2.662-2.29 5.254-3.39 7.854-1.102 2.6-2.1 4.93-3 7.03-.9 2.1-1.66 3.852-2.28 5.27-.62 1.42-1.01 2.307-1.17 2.666-.16-.36-.54-1.253-1.14-2.673s-1.35-3.182-2.25-5.282c-.9-2.1-1.9-4.45-3-7.05-1.102-2.6-2.23-5.154-3.39-7.815-.226-.513-.442-1.452-.664-1.452h-3c-.928-2-1.84-4.28-2.728-6.36-1.1-2.58-2.1-4.913-3-7.014-.9-2.1-1.65-3.723-2.25-5.163-.6-1.44-.98-2.462-1.14-2.462h7.26l8.882 21h3l2.818 6.702c0 .04.08.273.24.773.16.5.28.95.36 1.39.08-.438.2-.918.36-1.418.158-.5.26-.7.3-.74l2.816-6.706h-3l8.887-21zm21.74 21h3v22h-7v-22h-3v-21h7v21z"/>
    <path fill="#FB3782" d="M97.285 50.148c-.8-.82-1.71-1.47-2.73-1.95s-2.03-.744-3.03-.945c.178-.053.343-.102.512-.102h-3c.972 0 1.807-.876 2.488-1.457.8-.68 1.45-1.508 1.95-2.408.5-.9.86-1.9 1.08-2.96.22-1.06.33-2.16.33-3.28 0-2.04-.33-3.793-.99-5.253-.66-1.46-1.61-2.643-2.85-3.542-1.24-.9-2.74-1.305-4.5-1.725-1.76-.42-3.72-.375-5.88-.375H68.907v21h3v22h13.5c1.878 0 3.698-.107 5.458-.547s3.31-1.083 4.65-2.043 2.42-2.162 3.24-3.662 1.23-3.294 1.23-5.415c0-1.64-.25-3.062-.75-4.283-.5-1.22-1.15-2.23-1.95-3.052zM75.907 32.15h5c2.038 0 3.66.545 4.858 1.484 1.2.94 1.8 2.383 1.8 4.343 0 1.68-.49 3.206-1.47 4.406s-2.49 1.768-4.53 1.768h-5.658v-12zm16.16 27.118c-.4.78-.962 1.42-1.68 1.92-.722.5-1.562 1.097-2.522 1.356-.96.26-1.98.607-3.06.607h-5.898v-13h5.24c1.08 0 2.128.233 3.15.435 1.02.2 1.927.606 2.728 1.087.8.48 1.44 1.142 1.92 1.923.48.78.72 1.768.72 2.927 0 1.04-.2 1.966-.6 2.746zm47.84 3.883v6h-30v-22h-3v-21h29v6h-22v12h20v3h3v4h-20v12h23zm-105.74-37h7.26c-.16 0-.54 1.004-1.14 2.444s-1.35 3.082-2.25 5.182c-.9 2.1-1.9 4.406-3 6.986-.89 2.083-1.8 4.39-2.728 6.39h3c-.223 0-.44.938-.663 1.45-1.16 2.662-2.29 5.254-3.39 7.854-1.102 2.6-2.1 4.93-3 7.03-.9 2.1-1.66 3.852-2.28 5.27-.62 1.42-1.01 2.307-1.17 2.666-.16-.36-.54-1.253-1.14-2.673s-1.35-3.182-2.25-5.282c-.9-2.1-1.9-4.45-3-7.05-1.102-2.6-2.23-5.154-3.39-7.815-.226-.513-.442-1.452-.664-1.452h-3c-.928-2-1.84-4.28-2.728-6.36-1.1-2.58-2.1-4.913-3-7.014-.9-2.1-1.65-3.723-2.25-5.163-.6-1.44-.98-2.462-1.14-2.462h7.26l8.882 21h3l2.818 6.702c0 .04.08.273.24.773.16.5.28.95.36 1.39.08-.438.2-.918.36-1.418.158-.5.26-.7.3-.74l2.816-6.706h-3l8.887-21zm21.74 21h3v22h-7v-22h-3v-21h7v21z"/>
    <path fill="#FFF" d="M96.285 49.148c-.8-.82-1.71-1.47-2.73-1.95s-2.03-.744-3.03-.945c.178-.053.343-.102.512-.102h-3c.972 0 1.807-.877 2.488-1.457.8-.68 1.45-1.508 1.95-2.408.5-.9.86-1.9 1.08-2.96.22-1.06.33-2.16.33-3.28 0-2.04-.33-3.793-.99-5.253-.66-1.46-1.61-2.643-2.85-3.542-1.24-.9-2.74-1.305-4.5-1.725-1.76-.42-3.72-.375-5.88-.375H67.907v21h3v22h13.5c1.878 0 3.698-.107 5.458-.547s3.31-1.083 4.65-2.043 2.42-2.162 3.24-3.662 1.23-3.294 1.23-5.415c0-1.64-.25-3.062-.75-4.283-.5-1.22-1.15-2.23-1.95-3.052zM74.907 31.15h5c2.038 0 3.66.545 4.858 1.484 1.2.94 1.8 2.383 1.8 4.343 0 1.68-.49 3.206-1.47 4.406s-2.49 1.768-4.53 1.768h-5.658v-12zm16.16 27.118c-.4.78-.962 1.42-1.68 1.92-.722.5-1.562 1.097-2.522 1.356-.96.26-1.98.607-3.06.607h-5.898v-13h5.24c1.08 0 2.128.233 3.15.435 1.02.2 1.927.606 2.728 1.087.8.48 1.44 1.142 1.92 1.923.48.78.72 1.768.72 2.927 0 1.04-.2 1.966-.6 2.746zm47.84 3.883v6h-30v-22h-3v-21h29v6h-22v12h20v3h3v4h-20v12h23zm-105.74-37h7.26c-.16 0-.54 1.004-1.14 2.444s-1.35 3.082-2.25 5.182c-.9 2.1-1.9 4.406-3 6.986-.89 2.083-1.8 4.39-2.728 6.39h3c-.223 0-.44.938-.663 1.45-1.16 2.662-2.29 5.254-3.39 7.854-1.102 2.6-2.1 4.93-3 7.03-.9 2.1-1.66 3.852-2.28 5.27-.62 1.42-1.01 2.307-1.17 2.666-.16-.36-.54-1.253-1.14-2.673s-1.35-3.182-2.25-5.282c-.9-2.1-1.9-4.45-3-7.05-1.102-2.6-2.23-5.154-3.39-7.815-.226-.513-.442-1.452-.664-1.452h-3c-.928-2-1.84-4.28-2.728-6.36-1.1-2.58-2.1-4.913-3-7.014-.9-2.1-1.65-3.723-2.25-5.163-.6-1.44-.98-2.462-1.14-2.462h7.26l8.882 21h3l2.818 6.702c0 .04.08.273.24.773.16.5.28.95.36 1.39.08-.438.2-.918.36-1.418.158-.5.26-.7.3-.74l2.816-6.706h-3l8.887-21zm21.74 21h3v22h-7v-22h-3v-21h7v21z"/>
</svg>
